<?xml version="1.0" standalone="no"?>
<!DOCTYPE svg PUBLIC "-//W3C//DTD SVG 20010904//EN"
 "http://www.w3.org/TR/2001/REC-SVG-20010904/DTD/svg10.dtd">
<svg version="1.0" xmlns="http://www.w3.org/2000/svg"
 width="321.000000pt" height="321.000000pt" viewBox="0 0 321.000000 321.000000"
 preserveAspectRatio="xMidYMid meet">
<metadata>
Created by potrace 1.14, written by Peter Selinger 2001-2017
</metadata>
<g transform="translate(0.000000,321.000000) scale(0.100000,-0.100000)"
fill="#000000" stroke="none">
<path d="M2075 3200 c-3 -6 -11 -8 -16 -5 -5 4 -9 2 -9 -4 0 -6 -7 -7 -17 -4
-11 4 -14 3 -9 -5 5 -8 2 -10 -8 -6 -10 4 -16 1 -16 -7 0 -7 -3 -9 -7 -6 -9
10 -34 -14 -26 -26 3 -5 1 -7 -5 -4 -5 4 -22 -8 -36 -25 -14 -18 -33 -41 -42
-50 -9 -9 -13 -22 -9 -30 5 -7 -11 8 -35 35 -24 26 -47 47 -52 47 -5 0 -16 7
-25 15 -8 8 -19 13 -24 10 -5 -4 -9 -1 -9 6 0 6 -8 9 -20 6 -12 -3 -18 -1 -14
5 5 7 -2 9 -19 6 -15 -3 -24 -1 -21 4 3 5 -12 7 -35 5 -23 -2 -41 -1 -41 3 0
11 -78 11 -85 0 -4 -6 -11 -8 -16 -5 -5 4 -9 1 -9 -4 0 -10 8 -13 27 -10 3 0
10 -6 15 -15 5 -9 14 -14 19 -10 5 3 8 0 7 -8 -2 -7 4 -12 12 -10 8 2 12 0 8
-4 -4 -4 -4 -12 1 -18 20 -26 20 -45 0 -43 -10 1 -19 5 -19 10 0 5 -7 6 -16 3
-8 -3 -12 -2 -9 4 10 16 -76 33 -175 36 -52 1 -99 -1 -105 -4 -5 -4 -19 -6
-30 -7 -12 0 -19 -6 -17 -14 3 -12 0 -12 -12 -1 -10 7 -16 8 -16 2 0 -13 36
-26 50 -17 5 3 10 1 10 -5 0 -7 7 -10 15 -6 8 3 14 0 12 -7 -1 -7 4 -11 11 -9
8 1 11 -2 8 -7 -4 -5 0 -15 7 -23 14 -13 17 -21 17 -39 0 -5 5 -7 11 -3 8 5 9
2 1 -11 -8 -15 -24 -19 -83 -20 -83 -2 -123 -11 -113 -27 4 -6 2 -8 -4 -4 -13
8 -77 -26 -77 -42 0 -5 -4 -14 -9 -19 -5 -5 -6 -2 -1 6 5 9 4 12 -3 7 -7 -4
-16 -16 -22 -26 -9 -17 -6 -18 36 -16 25 1 47 -1 50 -6 3 -5 9 -6 13 -4 4 3 8
-1 8 -7 0 -9 -13 -12 -39 -10 -24 2 -38 -1 -38 -9 0 -6 -3 -8 -6 -5 -9 8 -44
-11 -44 -24 0 -6 4 -8 8 -5 5 3 14 -4 22 -14 8 -10 18 -16 23 -13 6 3 7 1 3
-6 -11 -17 12 -40 34 -36 13 2 17 -1 14 -10 -3 -8 -12 -11 -19 -8 -8 2 -26 -8
-41 -24 -15 -15 -24 -21 -20 -13 4 8 -2 5 -13 -8 -11 -13 -24 -24 -28 -25 -4
-1 -7 -6 -5 -10 1 -5 -1 -6 -6 -3 -7 4 -42 -27 -42 -39 0 -2 -11 -16 -25 -31
-31 -34 -32 -49 -2 -39 12 4 33 6 47 5 14 -1 30 -2 37 -3 7 0 10 -4 7 -9 -3
-4 1 -8 8 -8 10 0 10 -2 -1 -9 -7 -5 -22 -6 -34 -3 -13 3 -18 1 -13 -6 5 -8 2
-10 -8 -6 -9 3 -16 1 -16 -5 0 -6 -5 -10 -11 -8 -6 1 -18 -8 -26 -20 -14 -22
-14 -23 6 -23 11 0 21 -5 21 -11 0 -5 5 -7 12 -3 6 4 8 3 5 -3 -7 -11 30 -46
42 -39 4 3 8 -1 8 -9 0 -8 -3 -12 -7 -10 -10 6 -39 -32 -32 -41 4 -4 2 -4 -4
-1 -12 7 -46 -28 -37 -37 4 -3 1 -6 -6 -6 -8 0 -11 -6 -7 -16 3 -8 2 -12 -4
-9 -6 3 -10 -1 -10 -9 0 -9 0 -19 0 -23 0 -7 8 -8 41 -4 5 0 8 4 6 9 -3 4 8 7
23 7 16 0 26 -2 24 -4 -2 -2 1 -10 8 -18 8 -11 7 -12 -6 -7 -9 3 -16 1 -16 -5
0 -6 -5 -11 -12 -11 -21 0 -57 -41 -51 -58 4 -10 2 -13 -5 -8 -7 4 -12 4 -13
-1 0 -4 -2 -15 -4 -25 -2 -14 5 -16 49 -14 46 1 52 -1 48 -16 -2 -10 -9 -18
-14 -18 -5 0 -6 -5 -3 -10 3 -6 -1 -13 -9 -16 -9 -3 -16 -12 -16 -20 0 -8 -14
-26 -30 -41 -17 -15 -29 -32 -26 -38 2 -6 -4 -11 -14 -11 -10 0 -17 3 -15 6 2
3 -23 6 -56 7 -39 1 -57 -3 -52 -10 3 -6 1 -7 -6 -3 -16 11 -42 -19 -34 -40 5
-13 3 -15 -7 -9 -10 6 -12 4 -6 -11 5 -15 4 -16 -5 -7 -6 6 -18 9 -27 6 -10
-4 -13 -2 -8 5 7 12 6 13 -30 17 -12 1 -26 5 -33 9 -16 10 -53 -3 -45 -16 5
-7 1 -9 -9 -5 -9 3 -18 0 -21 -9 -4 -10 -2 -12 6 -8 7 5 8 3 2 -7 -13 -21 -17
-62 -5 -54 6 3 8 0 5 -8 -3 -8 -1 -18 5 -22 21 -12 11 -22 -21 -21 -27 1 -32
-3 -30 -18 2 -11 -1 -15 -7 -11 -7 4 -11 -4 -11 -20 0 -16 4 -24 11 -20 7 5 9
-3 6 -24 -3 -18 -1 -29 4 -25 6 3 8 -6 5 -22 -3 -15 0 -34 6 -41 6 -7 8 -16 5
-20 -4 -3 -1 -13 6 -21 10 -13 9 -14 -3 -7 -12 7 -13 6 -3 -7 7 -8 10 -18 6
-21 -3 -4 -1 -13 5 -20 6 -7 9 -26 6 -41 -3 -19 -1 -25 6 -21 8 5 10 -3 7 -24
-3 -19 -1 -29 5 -25 6 4 7 -7 4 -31 -4 -25 -3 -34 5 -29 8 4 9 -3 4 -26 -5
-24 -4 -31 5 -25 9 6 10 -1 5 -24 -4 -20 -3 -31 5 -31 6 0 8 -5 5 -10 -4 -6
-2 -17 4 -24 13 -16 74 -20 65 -4 -4 6 1 8 14 4 11 -4 23 -2 27 4 3 5 20 8 36
5 19 -3 28 -2 24 4 -3 6 6 9 25 6 16 -2 30 0 30 5 0 5 12 7 26 4 17 -3 23 -1
19 7 -5 8 2 9 25 4 23 -5 30 -4 26 4 -5 8 4 10 28 7 20 -2 36 -1 36 2 0 6 28
10 83 13 9 0 17 5 17 10 0 5 11 7 25 3 14 -3 25 -2 25 3 0 11 29 11 47 0 6 -4
9 -15 6 -25 -2 -10 4 -29 15 -42 17 -21 28 -24 101 -26 48 -1 84 2 88 9 4 6 1
7 -8 2 -12 -8 -12 -6 0 8 7 9 17 15 21 12 4 -3 8 11 8 30 0 21 -4 32 -10 29
-6 -4 -8 2 -3 15 3 11 2 21 -3 21 -6 0 -12 7 -15 14 -4 10 -1 13 9 9 8 -3 20
-1 27 4 16 12 56 9 70 -7 8 -9 9 -11 1 -7 -7 4 -15 0 -18 -9 -4 -10 -2 -13 7
-9 6 4 4 0 -7 -9 -10 -8 -15 -20 -10 -27 4 -7 3 -10 -3 -6 -12 7 -26 -20 -18
-33 3 -4 -2 -11 -11 -14 -9 -3 -14 -13 -10 -21 3 -8 -1 -18 -8 -22 -13 -9 -42
-73 -38 -86 1 -5 -2 -6 -7 -3 -5 3 -15 -1 -22 -10 -18 -22 0 -48 34 -49 15 0
27 -4 26 -10 0 -5 -6 -9 -12 -8 -8 2 -13 -15 -15 -48 -1 -27 1 -48 6 -46 4 3
7 -21 7 -54 0 -55 -2 -59 -23 -59 -15 0 -21 -4 -16 -12 4 -7 3 -8 -4 -4 -15 9
-74 -22 -67 -34 4 -6 1 -10 -5 -10 -7 0 -9 -7 -6 -16 3 -8 2 -12 -4 -9 -9 6
-14 -8 -11 -27 0 -5 -4 -8 -10 -8 -5 0 -7 -4 -4 -10 3 -5 1 -10 -5 -10 -6 0
-10 -8 -8 -17 3 -18 35 -25 53 -12 7 5 10 -5 9 -29 -1 -20 -3 -37 -4 -37 -1 0
-4 -12 -6 -27 -2 -25 0 -27 25 -24 18 2 28 -2 28 -10 0 -7 -5 -10 -10 -7 -6 4
-7 -5 -3 -23 4 -16 12 -32 18 -35 18 -12 0 -26 -29 -23 -16 1 -36 -5 -47 -14
-11 -9 -16 -12 -13 -5 5 7 0 9 -13 6 -11 -3 -17 -10 -13 -16 3 -6 1 -7 -5 -3
-13 8 -52 -23 -52 -42 0 -7 -4 -11 -9 -7 -5 3 -15 -11 -21 -31 -17 -50 -23
-117 -10 -109 6 4 7 -1 3 -11 -5 -14 -3 -16 11 -11 9 4 15 3 12 -2 -7 -11 22
-23 35 -15 5 3 9 1 9 -5 0 -5 11 -8 25 -6 14 1 25 -2 25 -6 0 -5 68 -9 150 -9
83 0 150 4 150 9 0 5 16 7 35 4 20 -3 35 0 35 5 0 6 10 8 22 4 13 -3 19 -1 15
5 -4 6 4 8 20 5 17 -3 24 -1 19 6 -4 7 3 9 20 6 16 -3 23 -1 19 6 -3 6 0 7 10
4 8 -4 21 -1 29 5 7 6 16 8 19 4 4 -3 7 -1 7 6 0 7 5 9 11 5 6 -3 15 -1 19 6
5 8 20 14 33 14 14 1 23 -2 21 -6 -3 -5 7 -9 23 -9 392 -4 511 -7 519 -11 15
-8 74 -9 74 -1 0 5 17 9 38 9 78 3 111 21 116 65 2 13 7 36 11 52 4 16 3 27
-3 27 -6 0 -8 10 -4 22 4 16 2 19 -8 13 -9 -5 -11 -4 -6 3 11 18 -24 64 -45
59 -10 -3 -24 2 -30 9 -7 8 -18 13 -26 10 -7 -3 -13 -1 -13 4 0 5 -9 7 -20 5
-11 -2 -20 0 -20 5 0 4 -15 7 -34 6 -19 -1 -32 2 -30 6 2 3 -5 9 -16 13 -11 3
-20 11 -20 16 0 6 -5 7 -12 3 -6 -4 -8 -3 -4 4 3 6 0 14 -8 19 -8 4 -16 13
-18 18 -2 6 -6 9 -10 7 -5 -1 -8 3 -8 9 0 6 -12 8 -28 6 -23 -4 -28 -1 -29 16
-1 11 -10 25 -19 30 -13 7 -14 11 -3 18 11 6 10 11 -3 26 -17 19 -21 41 -19
111 1 24 5 41 10 38 32 -20 64 123 35 155 -9 10 -23 15 -32 12 -10 -4 -13 -2
-8 5 8 13 6 13 -34 18 -14 2 -35 4 -47 6 -12 1 -25 8 -28 16 -3 8 -11 12 -18
9 -7 -3 -14 3 -14 14 -1 10 4 18 10 16 7 -1 11 4 9 11 -1 6 4 11 10 10 7 -2
12 2 11 9 -2 7 3 10 11 7 8 -3 19 4 26 16 6 11 15 18 19 15 5 -2 20 4 34 15
14 11 30 20 37 20 6 0 9 4 6 9 -3 5 2 8 12 7 9 0 16 4 15 10 -1 8 6 10 19 6
16 -4 19 -2 13 8 -5 9 -4 11 3 6 6 -4 20 2 31 13 15 15 18 30 16 67 -2 27 -8
50 -14 52 -6 2 -9 8 -5 13 3 5 0 9 -6 9 -6 0 -8 5 -5 10 3 6 2 10 -2 10 -5 0
-10 10 -10 22 -1 13 -7 24 -13 26 -5 2 -8 8 -4 13 3 5 1 9 -5 9 -6 0 -7 7 -4
17 4 10 2 14 -4 10 -7 -5 -9 1 -5 15 3 12 1 19 -4 15 -5 -3 -10 2 -10 12 0 12
6 17 18 13 14 -3 17 0 12 12 -3 9 -10 13 -15 10 -5 -3 -9 0 -9 6 0 7 -6 10
-14 7 -8 -3 -13 1 -12 11 0 9 -4 16 -9 15 -6 -1 -11 7 -11 17 0 12 4 16 11 11
14 -11 234 -11 241 0 3 5 10 7 15 4 11 -8 12 15 0 34 -5 8 -14 10 -21 6 -9 -6
-11 -4 -5 4 4 7 -2 22 -16 37 -25 27 -27 26 49 26 17 0 32 3 32 7 0 3 27 6 60
6 33 0 60 -4 60 -9 0 -5 6 -3 13 3 8 6 17 8 20 4 4 -3 7 -3 7 2 0 4 -10 17
-23 29 -12 11 -25 25 -27 31 -3 5 -8 9 -12 8 -5 -2 -7 0 -7 5 1 4 0 10 -1 15
-1 4 -3 10 -4 15 -2 13 -39 51 -46 47 -4 -2 -7 2 -7 9 0 8 8 11 20 8 11 -3 18
-1 15 4 -4 5 6 10 20 11 15 0 41 3 59 5 17 2 30 1 28 -3 -3 -3 7 -6 20 -6 14
0 25 3 25 7 0 13 -36 40 -44 33 -4 -4 -4 0 0 10 3 10 1 17 -6 17 -6 0 -8 5 -5
10 3 6 1 10 -4 10 -6 0 -10 3 -10 8 3 19 -2 33 -11 27 -6 -3 -7 1 -4 9 3 9 1
16 -5 16 -6 0 -11 7 -11 16 0 8 -4 13 -9 10 -5 -4 -7 3 -4 14 3 11 12 20 19
20 8 0 14 4 14 9 0 4 16 7 35 4 19 -2 35 -1 35 3 0 9 -77 83 -82 79 -2 -2 -5
6 -6 18 -1 19 3 22 32 21 18 -1 38 -4 44 -8 5 -3 18 -3 28 1 12 4 15 3 10 -5
-4 -7 -4 -12 1 -12 13 0 29 14 28 26 0 14 -31 44 -39 39 -3 -3 -4 -2 -1 1 7
11 -15 45 -25 39 -6 -4 -6 3 -2 16 6 14 19 23 38 25 16 2 30 7 32 13 2 5 12 7
22 4 11 -3 20 -1 20 3 0 17 -99 106 -109 99 -7 -3 -10 -1 -9 6 2 7 -8 18 -22
26 l-25 13 22 6 c13 4 21 9 19 13 -2 3 24 5 59 4 53 -1 63 1 58 13 -3 8 -12
13 -20 10 -9 -4 -11 -2 -7 6 5 7 0 9 -14 6 -12 -4 -20 -2 -16 3 5 8 -9 13 -28
10 -5 0 -8 4 -8 10 0 6 -7 9 -15 5 -8 -3 -15 -1 -15 5 0 6 -5 7 -11 3 -7 -4
-10 -2 -8 5 3 7 9 13 14 14 18 2 65 50 59 59 -3 5 0 7 7 6 6 -2 14 3 17 11 3
10 -1 13 -17 8 -11 -3 -19 -1 -15 4 4 8 -17 14 -39 10 -4 0 -6 5 -5 11 2 7 -5
12 -15 12 -13 -2 -15 1 -7 10 5 7 6 16 2 20 -4 4 0 6 8 4 8 -1 14 4 15 12 0 8
6 16 13 16 6 1 17 2 23 3 5 0 7 5 4 11 -4 6 1 7 11 3 11 -4 15 -3 11 4 -5 7 1
9 14 6 16 -4 20 -2 17 8 -3 8 -9 14 -14 15 -5 0 -17 4 -26 8 -9 4 -22 4 -29 0
-8 -5 -9 -3 -4 6 6 10 3 12 -13 8 -12 -4 -20 -3 -17 2 3 4 -2 11 -11 14 -9 4
-13 2 -8 -5 3 -6 -5 -4 -19 5 -13 9 -29 16 -33 15 -24 -4 -25 3 -3 28 13 14
17 23 9 18 -8 -4 -5 2 8 14 12 12 23 26 23 31 1 6 2 14 3 19 0 5 5 13 10 18 5
5 6 2 1 -6 -5 -9 1 -7 19 4 31 21 33 25 6 20 -11 -2 -22 0 -25 6 -4 5 -17 7
-31 5 -13 -3 -24 -1 -24 4 0 10 -10 11 -95 12 -63 1 -92 -3 -112 -15 -17 -11
4 49 30 87 12 16 15 26 7 21 -8 -5 -11 -4 -7 2 4 6 20 16 37 23 40 16 38 25
-6 28 -20 2 -33 -1 -30 -6 3 -5 -6 -7 -21 -4 -17 3 -24 1 -19 -6 4 -7 -2 -9
-19 -6 -14 2 -25 0 -25 -5 0 -5 -10 -7 -22 -3 -11 3 -19 1 -16 -4 4 -5 -7 -10
-24 -10 -17 -1 -34 -7 -39 -15 -5 -8 -9 -10 -9 -5 0 5 -6 4 -12 -2 -13 -10
-18 -12 -39 -12 -5 0 -7 -4 -4 -10 4 -6 -1 -7 -11 -3 -12 4 -15 3 -10 -5 5 -8
2 -10 -8 -6 -10 4 -16 1 -16 -7 0 -7 -3 -9 -7 -5 -10 10 -9 85 1 78 5 -3 6 2
3 12 -4 10 -3 15 3 11 9 -6 14 8 11 28 0 4 5 6 12 5 6 -2 11 2 10 9 -2 7 3 10
11 7 8 -3 16 -1 19 3 3 5 -14 10 -38 12 -24 1 -46 -3 -50 -9z m-585 -1818 c14
-6 19 -11 12 -11 -7 -1 -11 -5 -8 -9 3 -5 -4 -16 -15 -26 -12 -9 -18 -24 -15
-32 3 -8 -1 -17 -10 -21 -8 -3 -13 -12 -10 -19 3 -8 1 -14 -4 -14 -6 0 -10 7
-10 16 0 8 -4 13 -8 10 -5 -3 -8 5 -7 17 1 12 -1 33 -5 47 -13 49 21 67 80 42z
m475 -63 c-3 -17 1 -20 23 -19 43 3 66 1 59 -7 -4 -3 -1 -13 6 -21 8 -11 8
-13 0 -9 -7 5 -9 0 -6 -13 3 -11 9 -17 14 -14 15 9 5 -20 -11 -34 -11 -10 -11
-12 -1 -6 9 5 12 3 7 -5 -4 -6 -12 -9 -17 -5 -6 3 -25 -10 -44 -30 -18 -20
-31 -36 -27 -36 4 0 -4 -6 -18 -13 -14 -8 -24 -19 -22 -25 1 -7 -3 -12 -9 -12
-5 0 -8 -4 -5 -8 3 -5 0 -9 -7 -9 -8 0 -12 20 -11 61 1 34 3 63 4 66 4 8 9 42
12 75 2 17 9 35 17 41 8 6 11 16 7 22 -4 7 -2 12 4 12 7 0 9 7 6 16 -5 14 -4
15 8 5 8 -7 13 -21 11 -32z"/>
</g>
</svg>
